<svg width="179" height="190" viewBox="0 0 179 190" fill="none" xmlns="http://www.w3.org/2000/svg">
<path d="M87 11.1547C88.2376 10.4402 89.7624 10.4402 91 11.1547L160.612 51.3453C161.85 52.0598 162.612 53.3803 162.612 54.8094V135.191C162.612 136.62 161.85 137.94 160.612 138.655L91 178.845C89.7624 179.56 88.2376 179.56 87 178.845L17.3878 138.655C16.1502 137.94 15.3878 136.62 15.3878 135.191V54.8094C15.3878 53.3803 16.1502 52.0598 17.3878 51.3453L87 11.1547Z" fill="#292627"/>
<path d="M19.0207 96C18.4848 95.0718 18.4848 93.9282 19.0207 93L52.9613 34.2132C53.4972 33.285 54.4876 32.7132 55.5594 32.7132H123.441C124.512 32.7132 125.503 33.285 126.039 34.2132L159.979 93C160.515 93.9282 160.515 95.0718 159.979 96L126.039 154.787C125.503 155.715 124.512 156.287 123.441 156.287H55.5594C54.4876 156.287 53.4972 155.715 52.9613 154.787L19.0207 96Z" stroke="url(#paint0_linear_10_19)" stroke-width="2"/>
<path d="M19.0207 96C18.4848 95.0718 18.4848 93.9282 19.0207 93L52.9613 34.2132C53.4972 33.285 54.4876 32.7132 55.5594 32.7132H123.441C124.512 32.7132 125.503 33.285 126.039 34.2132L159.979 93C160.515 93.9282 160.515 95.0718 159.979 96L126.039 154.787C125.503 155.715 124.512 156.287 123.441 156.287H55.5594C54.4876 156.287 53.4972 155.715 52.9613 154.787L19.0207 96Z" stroke="url(#paint1_linear_10_19)" stroke-width="2"/>
<g filter="url(#filter0_d_10_19)">
<path d="M51.897 67H81.257C81.897 67 82.457 67.24 82.937 67.72C83.417 68.1467 83.657 68.7067 83.657 69.4C83.657 70.0933 83.417 70.6533 82.937 71.08C82.457 71.5067 81.897 71.72 81.257 71.72H53.737L54.537 70.36V92.84L53.657 91.8H77.657C78.297 91.8 78.857 92.04 79.337 92.52C79.817 93 80.057 93.56 80.057 94.2C80.057 94.8933 79.817 95.4533 79.337 95.88C78.857 96.3067 78.297 96.52 77.657 96.52H53.817L54.537 95.72V118.76L54.137 118.28H81.257C81.897 118.28 82.457 118.52 82.937 119C83.417 119.48 83.657 120.04 83.657 120.68C83.657 121.373 83.417 121.933 82.937 122.36C82.457 122.787 81.897 123 81.257 123H51.897C51.257 123 50.697 122.76 50.217 122.28C49.737 121.8 49.497 121.24 49.497 120.6V69.4C49.497 68.76 49.737 68.2 50.217 67.72C50.697 67.24 51.257 67 51.897 67Z" fill="#E8DBC9"/>
</g>
<g filter="url(#filter1_d_10_19)">
<path d="M131.682 66.76C132.322 66.76 132.856 66.9733 133.282 67.4C133.762 67.7733 134.002 68.2533 134.002 68.84C134.002 69.3733 133.816 69.88 133.442 70.36L115.042 95.4L112.402 91.48L129.762 67.8C130.296 67.1067 130.936 66.76 131.682 66.76ZM93.4422 66.76C94.2955 66.76 94.9622 67.08 95.4422 67.72L133.442 119.4C133.816 119.88 134.002 120.36 134.002 120.84C134.002 121.587 133.736 122.173 133.202 122.6C132.669 123.027 132.109 123.24 131.522 123.24C130.669 123.24 130.029 122.92 129.602 122.28L91.5222 70.6C91.1489 70.1733 90.9622 69.6933 90.9622 69.16C90.9622 68.4667 91.2022 67.9067 91.6822 67.48C92.2155 67 92.8022 66.76 93.4422 66.76ZM93.2022 123.24C92.5089 123.24 91.9755 123.027 91.6022 122.6C91.2289 122.12 91.0422 121.64 91.0422 121.16C91.0422 120.68 91.2289 120.147 91.6022 119.56L110.002 94.52L112.562 98.52L95.1222 122.2C94.6422 122.893 94.0022 123.24 93.2022 123.24Z" fill="#E97231"/>
</g>
<defs>
<filter id="filter0_d_10_19" x="45.497" y="67" width="42.16" height="64" filterUnits="userSpaceOnUse" color-interpolation-filters="sRGB">
<feFlood flood-opacity="0" result="BackgroundImageFix"/>
<feColorMatrix in="SourceAlpha" type="matrix" values="0 0 0 0 0 0 0 0 0 0 0 0 0 0 0 0 0 0 127 0" result="hardAlpha"/>
<feOffset dy="4"/>
<feGaussianBlur stdDeviation="2"/>
<feComposite in2="hardAlpha" operator="out"/>
<feColorMatrix type="matrix" values="0 0 0 0 0 0 0 0 0 0 0 0 0 0 0 0 0 0 0.25 0"/>
<feBlend mode="normal" in2="BackgroundImageFix" result="effect1_dropShadow_10_19"/>
<feBlend mode="normal" in="SourceGraphic" in2="effect1_dropShadow_10_19" result="shape"/>
</filter>
<filter id="filter1_d_10_19" x="86.9622" y="66.76" width="51.04" height="64.48" filterUnits="userSpaceOnUse" color-interpolation-filters="sRGB">
<feFlood flood-opacity="0" result="BackgroundImageFix"/>
<feColorMatrix in="SourceAlpha" type="matrix" values="0 0 0 0 0 0 0 0 0 0 0 0 0 0 0 0 0 0 127 0" result="hardAlpha"/>
<feOffset dy="4"/>
<feGaussianBlur stdDeviation="2"/>
<feComposite in2="hardAlpha" operator="out"/>
<feColorMatrix type="matrix" values="0 0 0 0 0 0 0 0 0 0 0 0 0 0 0 0 0 0 0.25 0"/>
<feBlend mode="normal" in2="BackgroundImageFix" result="effect1_dropShadow_10_19"/>
<feBlend mode="normal" in="SourceGraphic" in2="effect1_dropShadow_10_19" result="shape"/>
</filter>
<linearGradient id="paint0_linear_10_19" x1="17" y1="94.5" x2="162" y2="94.5" gradientUnits="userSpaceOnUse">
<stop stop-color="#E8DBC9" stop-opacity="0"/>
<stop offset="1" stop-color="#E97231"/>
</linearGradient>
<linearGradient id="paint1_linear_10_19" x1="17" y1="94.5" x2="162" y2="94.5" gradientUnits="userSpaceOnUse">
<stop stop-color="#E8DBC9"/>
<stop offset="1" stop-color="#E8DBC9" stop-opacity="0"/>
</linearGradient>
</defs>
</svg>
